<svg height="460pt" viewBox="-59 0 460 460.07697" width="460pt" xmlns="http://www.w3.org/2000/svg"><path d="m138.640625 139.511719.007813-.023438c15.019531-3.957031 84.132812-21.207031 99.109374-22.328125 50.570313-3.769531 92.292969 39.371094 86.761719 89.769532-5.898437 53.859374-25.5 146.429687-84.070312 241.660156-1.515625 2.472656-4.355469 3.8125-7.230469 3.410156-2.871094-.402344-5.234375-2.472656-6.007812-5.269531l-6.519532-23.519531c-7.722656-27.835938-22.816406-53.070313-43.691406-73.039063l-2.589844-2.480469c-5.8125-5.558594-15.03125-5.363281-20.601562.4375l-2.140625 2.230469c-19.089844 19.878906-32.738281 44.34375-39.628907 71.03125l-6.417968 24.859375c-.738282 2.828125-3.09375 4.949219-5.984375 5.378906-2.890625.433594-5.761719-.898437-7.296875-3.390625-58.359375-95.027343-77.929688-187.4375-83.839844-241.21875-5.558594-50.609375 36.589844-93.808593 87.347656-89.808593 11.820313.929687 21.8125 13.328124 42.792969 22.300781zm0 0" fill="#d4e1f4"/><g fill="#083863"><path d="m237.164062 109.183594c-15.636718 1.167968-81.300781 17.605468-97.855468 21.871094-6.746094-3.234376-13.226563-6.996094-19.378906-11.253907-8.039063-5.3125-14.980469-9.902343-23.449219-10.5625-26.519531-2.097656-52.59375 7.726563-71.136719 26.796875-18.542969 19.074219-27.632812 45.410156-24.796875 71.859375 5.308594 48.292969 23.402344 144.273438 84.980469 244.539063 3.210937 5.222656 9.234375 8.023437 15.300781 7.109375 6.066406-.910157 11-5.355469 12.539063-11.289063l6.417968-24.863281c6.5625-25.351563 19.527344-48.59375 37.65625-67.492187l2.136719-2.226563c2.515625-2.617187 6.675781-2.707031 9.300781-.199219l2.59375 2.480469c19.828125 18.976563 34.171875 42.953125 41.511719 69.402344l6.519531 23.515625c1.578125 5.894531 6.550782 10.257812 12.597656 11.054687 6.027344.851563 11.984376-1.953125 15.167969-7.136719 61.792969-100.476562 79.910157-196.613281 85.207031-244.980468 2.855469-26.339844-6.136718-52.585938-24.550781-71.636719-18.410156-19.050781-44.335937-28.9375-70.757812-26.980469zm79.398438 96.875c-5.125 46.804687-22.609375 139.648437-82.082031 236.960937l-6.085938-21.949219c-8.109375-29.21875-23.953125-55.710937-45.863281-76.679687l-2.59375-2.480469c-9.007812-8.589844-23.265625-8.285156-31.898438.679688l-2.140624 2.230468c-20.027344 20.878907-34.351563 46.558594-41.601563 74.570313l-6 23.246094c-59.242187-97.085938-76.699219-189.757813-81.835937-236.492188-2.316407-21.710937 5.152343-43.324219 20.375-58.972656 15.226562-15.648437 36.628906-23.707031 58.394531-21.988281 4.355469.34375 9.445312 3.707031 15.886719 7.964844 7.675781 5.328124 15.839843 9.921874 24.378906 13.714843 22.148437 9.5 48.699218 12.136719 81.183594 8.074219 4.363281-.570312 7.449218-4.558594 6.902343-8.925781-.546875-4.367188-4.515625-7.472657-8.886719-6.949219-16.378906 2.046875-31 2.269531-44.089843.644531 26.058593-6.363281 58.628906-13.886719 67.757812-14.570312 21.679688-1.601563 42.953125 6.511719 58.058594 22.144531 15.109375 15.628906 22.492187 37.164062 20.152344 58.777344zm0 0"/><path d="m255.828125 41c-4.417969 0-8 3.582031-8 8v10h-9c-4.417969 0-8 3.582031-8 8s3.582031 8 8 8h9v9c0 4.417969 3.582031 8 8 8s8-3.582031 8-8v-9h10c4.417969 0 8-3.582031 8-8s-3.582031-8-8-8h-10v-10c0-4.417969-3.582031-8-8-8zm0 0"/><path d="m333.828125 18h-10v-10c0-4.417969-3.582031-8-8-8s-8 3.582031-8 8v10h-9c-4.417969 0-8 3.582031-8 8s3.582031 8 8 8h9v9c0 4.417969 3.582031 8 8 8s8-3.582031 8-8v-9h10c4.417969 0 8-3.582031 8-8s-3.582031-8-8-8zm0 0"/><path d="m333.828125 89h-10v-10c0-4.417969-3.582031-8-8-8s-8 3.582031-8 8v10h-9c-4.417969 0-8 3.582031-8 8s3.582031 8 8 8h9v9c0 4.417969 3.582031 8 8 8s8-3.582031 8-8v-9h10c4.417969 0 8-3.582031 8-8s-3.582031-8-8-8zm0 0"/></g></svg>